<?xml version="1.0" encoding="UTF-8"?>
<svg id="Layer_1" xmlns="http://www.w3.org/2000/svg" version="1.1" viewBox="0 0 512 512">
  <!-- Generator: Adobe Illustrator 29.1.0, SVG Export Plug-In . SVG Version: 2.1.0 Build 142)  -->
  <defs>
    <style>
      .st0 {
        fill: #fff;
      }
    </style>
  </defs>
  <path class="st0" d="M49.1,375.6c1.8,1.4,2.9,3.6,4.1,5.6-14.3,6.4-28.6,12.5-43.1,18.4-1,.4-1.2.5-2.3.4,3.8-4.1,34.1-20.1,41.4-24.3Z"/>
  <path class="st0" d="M343.7,472.4c-4.3-8.6-13.1-17.4-20-24.2-3.4-3.4-7-6.6-10.7-9.6-2.8-2.3-8.7-5.8-10.8-8.4-.3-.4-.2-.9-.3-1.3,29.2,17.6,58.4,47.1,66.6,80.9.2.8.3,1.5.4,2.4-2.4-3.8-3.5-8.6-5.4-12.8-4.5-10.2-11.7-19.4-19.8-27Z"/>
  <path class="st0" d="M102.4,109c3.2,9.9,3.4,33.4,9.1,40.5,6.8,8.5,26.2,9.9,36.3,12-9.7,2-23.8,3.2-32.1,8.6-9.5,6.2-10,28.9-12.8,39.5l-.3,1.3c-3.3-14-4.6-27.7-9.8-41.3-11.3-4.9-24.4-7-36.4-9.7,9.8-1.8,24-2.7,32.6-7.8,9.8-5.9,10.9-32.2,13.4-43.1Z"/>
  <path class="st0" d="M215.5,70.6c3.6,9.6,4.8,20.8,6.7,30.9l23.3-7.9-15.8,18.2c8.6,3.5,17.7,5.8,26.4,9.4l-30,2.6c1.4,12,2.6,24.1,3.6,36.1-6.5-10-12.4-20.1-18.3-30.5-6,5.8-11.4,12.3-16.9,18.5-2.4,2.8-5,5.5-7.5,8.2l12.8-32.3c-10.1-2.4-20.5-3.6-30.8-5,10-3.1,19.9-6.4,29.7-9.9-9-12-18.8-23.5-28.2-35.2,12.1,8.5,23.2,19.1,34.6,28.5,3.8-10.4,7.1-21,10.5-31.5Z"/>
  <path class="st0" d="M112,324.1c22.2-.1,36.5,6.6,54.3,19.2,4.2,3,8.5,6.7,13.6,8.1,1.2.3,3.2.8,4.3,1.5.3.2.5.4.7.6v-.3c-1.7.9-3.7.3-5.5,0-10.5-1.7-17.9-7.7-27-12.9-3.6-2-7.3-3.7-11.2-5.1-10.5-3.7-21-4.8-32.1-4.1-7.2.5-14.2,1.9-21,4.6-18.1,7.4-27.6,21-34.9,38.4,1.7-11.9,5.3-22,13.5-30.9,12.2-13.3,27.7-18.3,45.3-19.1Z"/>
  <path class="st0" d="M277.5,411.7c7.2,1.6,14.4,5.7,21.3,8.4,20.5,8,40.8,11.8,62.7,11.5-.3,9.2-.4,20.2-7.5,27.1-1.1,1-2.2,1.9-3.5,2.7-8.7-6.8-15.9-15.4-24.7-22.1-15-11.5-32-18.6-48.4-27.7Z"/>
  <path class="st0" d="M225.3,377c3.6-1.3,7.2-2.5,10.7-3.7,12.6,3.2,24.6,8.2,36.9,12.1,17.6,5.5,36.2,8,54.6,8.6-4,8.4-9.6,14.5-18.6,17.7-5.5,1.9-13.1,2.5-18.5,0-.2-.5-.1-.5-.5-1-2.5-3-7.2-5.7-10.4-8.2-16.7-13.1-32.4-24.2-54.2-25.4Z"/>
  <path class="st0" d="M229.7,363.8c-2.9,1.4-5.7,3-8.6,4.4-2.2.7-4.4,1.4-6.5,2.3,10.2,3.3,20.9,5.7,31.3,8.3,47.5,11.9,90.1,16.5,137.4-.6,5.4-.9,12.7-4.7,17.5-7,16.3-8,25.1-17.6,30.4-33.6-61.9,28.9-133.3,34-201.5,26.1Z"/>
  <path class="st0" d="M491.3,202.1l-.5.3c-7.4,5.4-13.8,11.9-21.2,17.3-28.6,21.1-61.8,39.2-96.7,50.7-13.1,4.3-26.4,8-39.8,11.1-7.2,1.6-14.5,2.8-21.9,3.5-4,12.5-10.6,21.7-21.6,30.3-2.7,2.1-8.6,5.5-9.9,8.2l.7.3c29.7-.3,68.7-4,96-15.5,6.9-.6,32.4-12.8,39.2-17,8.6-4.1,16.9-8.8,24.7-13.9,35.2-22.7,50.8-45.2,57.8-83.4l-6.8,7.9ZM371.6,308.6c.3.1.5.2.6.3-.2,0-.3-.2-.6-.3h0ZM371.5,308.1s0,0,0,.1c0,0,0,0,0-.1ZM372.3,308.9s0,0,.1,0c0,0,0,0-.1,0ZM372.5,309s0,0,0,0c0,0,0,0,0,0ZM372.7,309s0,0,0,0c0,0,0,0,0,0ZM373.3,308.9c.1,0,.3,0,.4-.1-.2,0-.3,0-.4.1ZM373,308.9s0,0,0,0c0,0,0,0,0,0Z"/>
  <path class="st0" d="M463.4.4c17.5,14.9,25.9,37.5,27.5,60.1,2.8,37.7-16.9,80.6-41.3,108.7-18,20.7-41.6,39.8-66.1,52.1l-.2-.2c.9-2.5,63.7-47.9,73.7-72.4,6.5-15.9.5-36.7-5.8-51.8-3.9,7.4-21.5,36.6-28.5,39.4,25.3-36.9,49.5-88.9,41-134.4,0-.5-.2-.9-.3-1.4Z"/>
  <path class="st0" d="M361.6,431.6c28.3-2.4,54.6-8.4,80.9-19.4-1.6,24.1-8.5,47.8-27.2,64.2-8.2,7.2-17.6,12.1-28,15.3-12.3-10-24.7-19.9-36.7-30.3,1.2-.8,2.4-1.7,3.5-2.7,7.1-6.9,7.3-17.9,7.5-27.1Z"/>
  <path class="st0" d="M214.6,381.4l1,.3c3.6,1.1,7.3,1.7,10.9,2.7,11.1,3.1,21.9,8.1,30.9,15.5,5.9,4.8,11.4,10.6,17.8,14.8,4.8,3.1,9.9,6.1,15.1,8.6,3.9,1.9,8,3.2,11.6,5.6.1.4,0,1,.3,1.3,2.1,2.6,8,6.2,10.8,8.4,3.7,3,7.3,6.2,10.7,9.6,6.9,6.8,15.6,15.6,20,24.2-37.4-21.6-57.6-16.1-96.5-20.5-11.2-1.3-22.1-4-33-6.9,1.5-4.1.4-55.1.4-63.6Z"/>
  <path class="st0" d="M472.6,268c-.4.2-.7.3-1.1.5-3.6,1.8-7,4.5-10.3,6.7-6,4-12.2,7.8-18.7,11.1-44.9,22.5-84.7,34.4-136,38.3-9.2.7-18.4.8-27.6,1.2-3.4,2.5-5.8,7.2-8.6,10.3-9.3,10.3-22.2,19.1-35.1,25.4l-1,.4.3.6c11.3,1.6,23.8,1.5,35.3,1.5,45.8.2,72.1-4,115-18.8,3.8-1.4,7.7-2.9,11.4-4.5,39-16,66.3-41.5,81.3-77.7-1.6,1.6-3.2,3.2-4.8,4.8Z"/>
  <path class="st0" d="M501,120c-1.5-6.4-3-12.9-5.7-19-20.6,46.8-58.8,82.8-102.1,113.7-14.9,10.7-30.1,21-46.4,30-1.8.9-4,1.8-5.5,3.1-4,3.7-7,9.3-10.2,13.6-5,6.8-10.9,12.7-17.5,18.2,7.7-1.2,15.4-2.4,23.1-3.8,26.9-4.4,55.6-13.1,78.9-26.1,21.1-11.8,39.8-28,55.5-45.1,23-25.1,33.3-52,29.9-84.6Z"/>
  <path class="st0" d="M451.2,96.9c6.3,15.1,12.3,35.8,5.8,51.8-10,24.5-72.8,70-73.7,72.4l.2.2c-2.7,2-7.4,5.4-10.6,5.9l-.6-.4c0-.4-.3-.9-.4-1.3-5.3,1.3-34.3,24-40.3,28.7-1.1-11.9-5.2-20.4-11.2-30.6,3.6-8.4,10.5-14,16.9-20.1,10.8-10.4,20.7-22.3,25-36.9,6.4-21.6-.5-44.7-10.9-63.9,15.1,10.8,26.7,26,29.7,44.6,1.6,9.7,1.1,22-5,30.1-3.2,4.2-7.8,7.3-11.9,10.5l.6.4c9.7-2.9,36.9-28.8,44.7-37.4,4.2-4.7,8.4-11,13.2-14.9,7-2.8,24.6-32,28.5-39.4Z"/>
  <path class="st0" d="M52.6,406.1c.4-15.9,4-30.5,13.5-43.5,6.4-8.7,15-15.5,25-19.7,42.8-18.3,73.1,20,107.1,14.5,44.6-7.3,66.2-65.2,89.2-98.4,10.9-15.8,24.4-29.4,35.5-45,19.3-27.2,33.7-61.4,30.4-95.4-.5-5.7-2.9-10.9-3.9-16.5l.5-.5,1.7,1.4c10.4,19.2,17.3,42.2,10.9,63.9-4.3,14.6-14.2,26.5-25,36.9-6.5,6.2-13.4,11.7-16.9,20.1,6,10.2,10.2,18.7,11.2,30.6,6-4.8,35-27.4,40.3-28.7.2.4.4.8.4,1.3-5.1,3.6-9.8,8.1-14.5,12.1-11.7,10.1-22.7,19.9-32.4,32-8.2,10.2-15,21.2-22.3,32.1-15.9,23.8-34.1,46.7-58.8,61.8-9.1,5.6-20,10.8-30.7,12.2v.7c3.7.7,8-.1,11.6-.8,21.9,1.3,37.5,12.3,54.2,25.4,3.2,2.5,7.9,5.2,10.4,8.2.4.4.3.5.5,1-24.2-6.7-40.4-25.3-66.6-29.5-3-.5-6.2-1.2-9.2-.6,0,8.5,1.1,59.5-.4,63.6-27.1-8.4-45-18.2-63.7-39.7-7.7-8.8-15.6-17.7-25.8-23.7-12-7.1-24.3-8.3-37.7-4.9,2.2,0,4.3,0,6.5,0,14.2.3,30.7,8.2,40.4,18.4-.4-.3-.9-.6-1.4-.9-14.8-9.2-32.9-15.5-50.4-11.2-13.5,3.3-22.5,11.5-29.6,23.2Z"/>
</svg>