<?xml version="1.0" encoding="UTF-8"?>
<svg xmlns="http://www.w3.org/2000/svg" xmlns:xlink="http://www.w3.org/1999/xlink" version="1.1" viewBox="0 0 512 256.8">
  <!-- Generator: Adobe Illustrator 29.1.0, SVG Export Plug-In . SVG Version: 2.1.0 Build 142)  -->
  <defs>
    <style>
      .st0 {
        fill: url(#linear-gradient2);
      }

      .st1 {
        fill: url(#linear-gradient1);
      }

      .st2 {
        fill: url(#linear-gradient3);
      }

      .st3 {
        fill: url(#linear-gradient6);
      }

      .st4 {
        fill: url(#linear-gradient7);
      }

      .st5 {
        fill: url(#linear-gradient5);
      }

      .st6 {
        fill: url(#linear-gradient4);
      }

      .st7 {
        fill: #9ca1a3;
      }

      .st8 {
        fill: #00b1b9;
      }

      .st9 {
        fill: url(#linear-gradient);
      }

      .st10 {
        fill: #6c7f94;
      }

      .st11 {
        fill: #fefefe;
      }

      .st12 {
        display: none;
      }
    </style>
    <linearGradient id="linear-gradient" x1="288.1" y1="267.9" x2="196.3" y2="333.9" gradientTransform="translate(.6 -36.2) scale(.7)" gradientUnits="userSpaceOnUse">
      <stop offset="0" stop-color="#62768d"/>
      <stop offset="1" stop-color="#b7b6b1"/>
    </linearGradient>
    <linearGradient id="linear-gradient1" x1="241.3" y1="127.5" x2="149.6" y2="132.6" gradientUnits="userSpaceOnUse">
      <stop offset="0" stop-color="#486484"/>
      <stop offset="0" stop-color="#506a86"/>
      <stop offset=".5" stop-color="#7f8b96"/>
      <stop offset=".8" stop-color="#9da09f"/>
      <stop offset="1" stop-color="#a8a8a3"/>
    </linearGradient>
    <linearGradient id="linear-gradient2" x1="238" y1="100.9" x2="237.8" y2="100.9" xlink:href="#linear-gradient1"/>
    <linearGradient id="linear-gradient3" x1="308.7" y1="366.4" x2="245.9" y2="369.3" gradientTransform="translate(.6 -36.2) scale(.7)" gradientUnits="userSpaceOnUse">
      <stop offset="0" stop-color="#6c7f94"/>
      <stop offset="1" stop-color="#9fa4a5"/>
    </linearGradient>
    <linearGradient id="linear-gradient4" x1="237" y1="349.9" x2="150.5" y2="350.6" gradientTransform="translate(.6 -36.2) scale(.7)" gradientUnits="userSpaceOnUse">
      <stop offset="0" stop-color="#62788e"/>
      <stop offset="1" stop-color="#b6b4ae"/>
    </linearGradient>
    <linearGradient id="linear-gradient5" x1="330.5" y1="264.7" x2="186.5" y2="289" gradientTransform="translate(.6 -36.2) scale(.7)" gradientUnits="userSpaceOnUse">
      <stop offset="0" stop-color="#556f8a"/>
      <stop offset="1" stop-color="#bfbab1"/>
    </linearGradient>
    <linearGradient id="linear-gradient6" x1="349.7" y1="185" x2="247.4" y2="187.1" gradientTransform="translate(.6 -36.2) scale(.7)" gradientUnits="userSpaceOnUse">
      <stop offset="0" stop-color="#486484"/>
      <stop offset="1" stop-color="#a8a8a3"/>
    </linearGradient>
    <linearGradient id="linear-gradient7" x1="318.5" y1="179.5" x2="226.1" y2="175.4" gradientTransform="translate(.6 -36.2) scale(.7)" gradientUnits="userSpaceOnUse">
      <stop offset="0" stop-color="#617890"/>
      <stop offset="1" stop-color="#b4b1aa"/>
    </linearGradient>
  </defs>
  <g id="Layer_2" class="st12">
    <rect class="st8" x="-.6" y="0" width="512.6" height="256.8"/>
  </g>
  <g id="Layer_1">
    <g id="Layer_21" data-name="Layer_2">
      <g>
        <path class="st10" d="M511,163.3c-1.7-.4-2.4.9-3.4,1.9-5.9,5.9-10.6,14.3-19.2,17.2-.9-.8-1.4-1-1.4-2.3,0-4.2,14.4-22.7,13.4-23.5-3-1.7-9.4,1.7-10.1,1.7s-2.9-3.3-5.8-3.6c-4-.4-11.7,3.7-14.7,6.3-4.5,3.9-5.5,9.1-9.2,12.9-7,7.5-23.9,13.3-20.5-3.2,2-9.9,20.6-23.5,13.2-3.6,16.4-1.3,10.3-16.5-5.7-11-12.6,4.3-12,11.5-19.2,19.2-2.2,2.3-12.9,11.1-10.1,2.3.9-3,12.9-20.3,12-21.1l-8.5.2c-2.7,3.4-4.1,10.8-9.3,10.4-6.7-.5,2-12,1.5-12.5-6.5-.6-11.5,3.6-15.8,7.7l3.3-6.7c-.8-.5-8.5.2-9.9,1-1.2.6-6.3,11.2-8,13.4-6.3,8.2-23.8,19.8-24.4,2,5.9,0,28-6.1,21.2-15-6.3-5-16.3,0-21.7,4.4-1.7,1.4-4.2,5.3-4.5,5.5-1.6.9-5-.2-6.6-1.2-2.6-2.6,1.6-9.1-3.8-10.7-6.4-1.9-4.4,7.7-5.5,11.9-1.3,5.3-9.7,17.6-16,15.4-1.2-.4-1.5-1.2-1.6-2.3-.9-5.8,10.5-18.7,13.5-24-4.3-1.2-7.9-.9-11,2.5-5.4,6-15.7,23.9-1.9,25.8,10.6,1.5,21.4-6.6,25-16.3l6.1,1c-6,17.5,11.3,18.9,22.6,11.5l.5,2.9c10.7,2.4,11-5.5,16.3-12,3-3.7,7-7,10.5-10.1-1.3,7.7,3.9,9.3,10.6,8.6-9.1,20.4,8.6,16,18.2,5.8,2.4,16.4,22.6,6.9,30.7,0-1,12.3,11.9,10.1,18.2,3.8.8,8.6,11.2,4.5,15.8.9,1.7-1.3,16-16.3,14.9-17.2h.1ZM368.9,158.9c1.1-.9,3.9-3.7,5.3-1.5,2.8,4.3-9.8,13.1-13.9,12.5,1.7-4.1,5.2-8.4,8.6-11ZM485,169.3c-1.5,3.1-8.7,13.3-12.7,12.1-6.7-2.1,3.4-23.6,11.6-24.8,6.9-1,2.7,9.4,1.1,12.7Z"/>
        <path class="st10" d="M437.8,146.7c2.5-2.5,1.2-7.7-3-7.4-9,.5-2.7,13.3,3,7.4Z"/>
        <path class="st10" d="M299.1,133.9c-1.7-1.6-10.9,2.1-9.5,7.1,2.4,7.9,11.3-5.3,9.5-7.1Z"/>
        <path class="st10" d="M317.4,118.1c.2-3.4-.2-11-4.5-11.9-5.4-1.1-4.7,11.9-5.4,15.5-2.5,12.6-8.1,23.4-9.4,36.7-.9,9.6-1.1,19.4-.9,28.8.2,9.4-.6,14.4-1.9,23.1-.6,3.9-.2,8.3-.8,12.2.2.9,1.7,3.6,2.2,3.6,2.3,0,1.2-10.5,1.4-13,.4-5.6,1.5-23.8,4.4-27.3,1.1-1.3,2.4-1.5,3.1-2.2.6-.7,7.5-15.6,7.8-16.8,1.7-7.8,1.1-15.6,2.9-23.1,2-8.5.8-17.2,1.2-25.6h0ZM313.5,135.4c-.6,10.9-4.8,31.5-10.1,40.8-.6,1.1-1,2.6-2.4,2.9.9-5,.4-10.9,1-15.8,1-7.7,5.2-17.7,6.5-25.2.4-2.8-.2-5.6.4-8.2.6-2.9,1-8.6,1.5-9.8s1.3-1.2,1.2-.5,0,2.3.1,3.3c.8,4.7,2.2,7.3,1.8,12.6h0Z"/>
        <path class="st10" d="M284.5,168.8c-1,1.7-6.4,9.2-7.5,9.8-1,.5-4.4.8-4.8.5-1.2-1.1,6.1-6.9,6-8.9,1.8-2.7-.5-8.6-3.1-9.8-3.9-1.8-8.3,1-9.4-4-1.2-5.5,4.1-7.9,8.9-7,1.3.2,4.2,2.9,5.3,1.9s-2.8-5.3-3.1-5.5c-5-3.8-20.2,5.4-19.7,11.8,0,.3,4.8,4,5.2,4.1,1.6.4,3.2-.6,5.1-.4,1.8.2,6.3,2,7.2,3.4,1.5,2.2-.5,8.9-2.4,10.2-.2.2-5.3.2-5.8,0-3-.9-7.1-6.2-10.8-7.5-5.6-1.9-15.1.9-14.2,7.4.3,2.3,5.9,6.8,8.2,7.2,7.2,1.2,19.1-4.5,24.5.5,2.6,2.5-.4,6.7,6,5.1,1.2-.3,8.1-3.4,9.3-4.1,3.2-1.8-3.8-2.5-4.4-3.3-1.3-1.8.2-6.5,1.5-8.2,1.6-2.1,4.4-2.4,5.4-5.2.4-1.3.8-8.3.4-8.7-2.2-2.4-7.2,9.9-7.8,10.9v-.2ZM258.3,178.1c-1.4,0-2.6-.9-3.9-1-1.1-.1-2.6.9-3.3.5-2.3-1.5-2.3-5.2.7-6.1,6.8-2,13.9,6.9,6.6,6.6h0Z"/>
      </g>
    </g>
    <g>
      <path class="st11" d="M43.1,96.6c.6,0,1,.1,1.6.4.4.8.2,1.1.1,1.9-.6,0-1,0-1.6-.3-.4-.7-.2-1.1-.2-1.9h0Z"/>
      <path class="st11" d="M113.1,65.4c.8,0,1.2,0,1.8.5.2.9,0,1.2-.1,2-.8-.1-1.1-.2-1.7-.7-.2-.8-.1-1.1,0-1.8h0Z"/>
      <path class="st11" d="M57.3,86.9c.4.9.6,1.9.9,2.8.6.3,1.2.7,1.7,1.1,0,.6-1.8,1.8-2.2,3.2,0,0,0,.2,0,.3h-.3c-.1-.5-.3-.9-.4-1.3-.4-1-1.3-1.5-2.3-2.1,1.9-1.2,2-2,2.7-3.9h0Z"/>
      <path class="st11" d="M63.9,96.9c.3.5.5,1,.7,1.5,1.1,2.4,2.6,2.8,5,3.7-4.2,1.3-3.4,2-5.4,5.4,0,0,0,.2-.2.2-.2-1-.5-1.9-1-2.8-1-2-3.2-2.4-5.1-3,1.1-.2,2.4-.4,3.4-.9,1.7-.8,2-2.5,2.6-4h0Z"/>
      <path class="st11" d="M35.9,111.3c.4,1.6.8,3.1,1.5,4.5,1.3.7,2.5,1.1,3.9,1.4-.7.3-1.3.6-1.9,1-1.3.8-2.5,2.4-2.8,3.9-.1.6-.3,1.2-.4,1.8l-.3-.2c-.2-1-.4-2-.9-2.8-1.1-2.1-3.6-2.5-5.6-3.2,1.6-.3,3.1-.7,4.7-1.1,1-1.6,1.4-3.4,1.8-5.2Z"/>
      <path class="st11" d="M24.6,184.3c.9.7,1.4,1.7,2,2.7-6.9,3.1-13.8,6-20.7,8.9-.5.2-.6.2-1.1.2,1.8-2,16.4-9.7,19.9-11.7h0Z"/>
      <path class="st7" d="M166.3,230.9c-2.1-4.1-6.3-8.4-9.6-11.6-1.6-1.6-3.4-3.2-5.1-4.6-1.3-1.1-4.2-2.8-5.2-4-.1-.2,0-.4-.1-.6,14.1,8.5,28.1,22.7,32.1,38.9,0,.4.1.7.2,1.2-1.2-1.8-1.7-4.1-2.6-6.2-2.2-4.9-5.6-9.3-9.5-13h0Z"/>
      <path class="st11" d="M35.9,73.4c.7,2.9,1,5.9,2,8.8,2.2.9,4.6,1.3,6.9,1.8-1.8.4-3.9.6-5.6,1.5-2.8,1.6-2.6,6-3.3,8.9-.6-2.8-1-5.6-1.9-8.4-2.4-1.2-5.2-1.6-7.8-2.3,2.6-.5,5.2-.9,7.7-1.7,1-2.8,1.4-5.7,2-8.6Z"/>
      <path class="st11" d="M175.6,121.2c1,3.9-2.8,11.4-4.4,15-3.3.7-6.6,1.3-10,1.8,2.8-2.7,5.4-5.5,7.6-8.8,1.4-2.1,2.7-4.8,4.4-6.5.6-.6,1.6-1.1,2.4-1.5h0Z"/>
      <path class="st11" d="M99.7,73c1.4,3.2,1.4,7.2,2.6,10.5,2.6,1,5.6,1.4,8.4,2-2.8.8-5.7,1.3-8.5,2.4-1.3,3.2-1.7,6.8-2.4,10.3-1-1.5-1.6-8-2.6-10.6-2.6-1.1-5.5-1.6-8.2-2.4,2.8-.5,5.7-1,8.4-1.9,1.3-3.2,1.6-6.9,2.2-10.3h0Z"/>
      <path class="st11" d="M53.5,50.3c.8,2.6.9,8.5,2.3,10.3,1.7,2.2,6.7,2.6,9.3,3.1-2.5.5-6.1.8-8.2,2.2-2.4,1.6-2.6,7.4-3.3,10.1v.3c-.9-3.6-1.3-7.1-2.6-10.5-2.9-1.3-6.2-1.8-9.3-2.5,2.5-.4,6.2-.7,8.3-2,2.5-1.5,2.8-8.2,3.4-11h0Z"/>
      <path class="st11" d="M169.7,139c-3.8,7.6-8.4,12.8-15.9,16.9-2.2,1.2-4.6,2.3-6.8,3.5h-.3c.5-1.5,3.1-3.1,4.3-4.1,4.7-4.1,7.6-8.6,9.3-14.6,3.2-.3,6.4-.9,9.4-1.7h0Z"/>
      <path class="st11" d="M74,68.6c.7,2.1.6,5.9,2.2,7.4,1.7,1.6,5.1,1,7.2.8l-3.7,3.2c1.4,2.4,3.3,4.6,5,6.9-2.3-1.7-4.5-3.4-7-4.8-1.3,2.3-1.7,4.7-2.7,7l-.3-.2c-1-2.3-1.9-4.5-3.1-6.7-2.2,1.7-4.2,3.7-6.4,5.5,1.1-1.9,3.5-4.2,3.6-6.4-.7-2-3.2-2.7-5-3.7,2.2-.1,4.7-.1,6.5-1.3,2.6-1.5,3.1-5.1,3.7-7.7h0Z"/>
      <path class="st11" d="M93.8,42.9c.9,2.5,1.2,5.3,1.7,7.9l6-2-4,4.7c2.2.9,4.5,1.5,6.7,2.4l-7.7.7c.3,3.1.7,6.2.9,9.2-1.6-2.6-3.2-5.1-4.7-7.8-1.5,1.5-2.9,3.1-4.3,4.7-.6.7-1.3,1.4-1.9,2.1l3.3-8.3c-2.6-.6-5.2-.9-7.8-1.3,2.6-.8,5.1-1.6,7.6-2.6-2.3-3.1-4.8-6-7.2-9,3.1,2.2,5.9,4.9,8.9,7.3,1-2.6,1.8-5.3,2.7-8h0Z"/>
      <path class="st11" d="M54.8,159.5c10.7,0,17.6,3.2,26.1,9.2,2,1.4,4.1,3.2,6.5,3.9.6.1,1.5.4,2.1.7.1,0,.2.2.3.3h0c-.8.3-1.8,0-2.6-.1-5.1-.8-8.6-3.7-13-6.2-1.7-1-3.5-1.8-5.4-2.5-5.1-1.8-10.1-2.3-15.4-2-3.5.2-6.8.9-10.1,2.2-8.7,3.6-13.3,10.1-16.8,18.5.8-5.7,2.6-10.6,6.5-14.9,5.9-6.4,13.3-8.8,21.8-9.2h0Z"/>
      <path class="st11" d="M240.8,96.9c-3,18.4-9.7,29.2-24.9,40.1-3.4,2.5-7,4.7-10.7,6.7.5-1.3,2.3-2.7,3.3-3.8,6.7-6.8,13.7-13.9,19.4-21.5,4.1-5.4,7.3-11.6,9.9-17.8l2.9-3.8h0Z"/>
      <path class="st11" d="M134.5,201.7c3.5.8,6.9,2.7,10.3,4,9.9,3.9,19.6,5.7,30.2,5.5-.1,4.4-.2,9.7-3.6,13-.5.5-1.1.9-1.7,1.3-4.2-3.3-7.7-7.4-11.9-10.6-7.2-5.5-15.4-9-23.3-13.3h0Z"/>
      <path class="st11" d="M229.8,132.5c.7-.8,1.4-1.5,2.1-2.3-6.4,17.4-18.2,29.7-35,37.4-1.6.7-3.3,1.4-5,2.2-1.6-1.4-3-4.1-4.1-5.9,17.9-6,31.2-15.9,42.1-31.3h0Z"/>
      <path class="st7" d="M109.4,185c1.7-.6,3.5-1.2,5.1-1.8,6.1,1.5,11.8,3.9,17.8,5.8,8.5,2.6,17.4,3.9,26.3,4.1-1.9,4-4.6,7-9,8.5-2.6.9-6.3,1.2-8.9,0,0-.2,0-.2-.2-.5-1.2-1.4-3.5-2.7-5-3.9-8-6.3-15.6-11.6-26.1-12.2h0Z"/>
      <path class="st11" d="M121.4,180.8c6-.8,11.1,2.1,16.9,3.1,8.7,1.6,19.2.2,27.7-1.9,1.5,2.7,3.3,5.4,6.5,6.4,6,1.8,14.4-3.1,18.8-2.7-20.4,8.2-38.7,6-59.2.3-4.5-1.3-9.1-2.4-13.5-4,.9-.4,1.9-.8,2.8-1.1h0Z"/>
      <path class="st9" d="M125.1,178.6c29.4,3.8,60.2,1.3,86.9-12.6-2.3,7.7-6.1,12.3-13.1,16.2-2.1,1.2-5.2,2.9-7.6,3.4-4.4-.4-12.9,4.5-18.8,2.7-3.2-1-5-3.6-6.5-6.4-8.6,2.2-19,3.6-27.7,1.9-5.8-1.1-10.9-3.9-16.9-3.1,1.2-.7,2.5-1.5,3.7-2.1h0Z"/>
      <g>
        <path class="st1" d="M237.8,101c-3.2,2.6-6,5.7-9.1,8.3-12.2,10.1-28.8,19.5-43.7,25-5,1.8-10.1,3.3-15.3,4.7h0c-3.8,7.6-8.4,12.8-15.9,16.9-2.3,1.2-4.6,2.3-6.8,3.5,12.2-.1,28.1-1.8,39.7-6.7,0,0,0,0,0,0,0,0,15.5-6.8,18.6-8.9.5-1.3,2.3-2.7,3.3-3.8,6.7-6.8,13.6-13.9,19.4-21.5,4.1-5.3,7.2-11.4,9.8-17.6h0Z"/>
        <path class="st0" d="M237.9,100.8c0,0,0,.1,0,.2h.2c0-.1,0-.2,0-.2Z"/>
      </g>
      <path class="st11" d="M224,3.7c8.4,7.2,12.5,18,13.2,28.9,1.3,18.1-8.1,38.8-19.9,52.3-8.7,10-20,19.2-31.8,25.1h0c.4-1.3,30.7-23.1,35.5-34.9,3.1-7.7.2-17.7-2.8-24.9-1.9,3.6-10.3,17.6-13.7,19,12.2-17.8,23.8-42.8,19.7-64.7,0-.2,0-.4-.1-.7h0Z"/>
      <path class="st2" d="M175,211.2c13.6-1.2,26.3-4,38.9-9.3-.8,11.6-4.1,23-13.1,30.9-3.9,3.5-8.5,5.8-13.5,7.4-5.9-4.8-11.9-9.6-17.7-14.6.6-.4,1.2-.8,1.7-1.3,3.4-3.3,3.5-8.6,3.6-13h0Z"/>
      <path class="st6" d="M104.2,187.1h.5c1.7.7,3.5,1,5.2,1.4,5.3,1.5,10.5,3.9,14.9,7.5,2.8,2.3,5.5,5.1,8.6,7.1,2.3,1.5,4.8,2.9,7.3,4.1,1.9.9,3.9,1.5,5.6,2.7,0,.2,0,.5.1.6,1,1.3,3.9,3,5.2,4,1.8,1.4,3.5,3,5.1,4.6,3.3,3.3,7.5,7.5,9.6,11.6-18-10.4-27.7-7.7-46.4-9.9-5.4-.6-10.6-1.9-15.9-3.3.7-2,.2-26.5.2-30.6h0Z"/>
      <path class="st5" d="M146.3,160.3c4-.2,7.9-.2,11.9-.6,22.1-1.9,39.3-7.6,58.6-18.4,2.8-1.6,5.5-3.4,8-5.3,1.4-1.1,2.9-2.4,4.5-3.2.1,0,.3-.1.5-.2-10.8,15.4-24.2,25.3-42.1,31.3,1.2,1.8,2.5,4.5,4.1,5.9-18.5,7.1-29.8,9.1-49.6,9-5,0-10.3,0-15.3-.7v-.3c0,0,.3-.2.3-.2,5.6-3.1,11.1-7.3,15.2-12.2,1.2-1.5,2.2-3.8,3.7-5h0Z"/>
      <path class="st11" d="M127.5,177.6c5.6-3.1,11.1-7.3,15.2-12.2,1.2-1.5,2.2-3.8,3.7-5,.6,0,1.4,0,1.9.5-.4,3.7-5.1,8.4-7.9,10.7-2,1.6-10.1,6.7-12.6,6.2,0,0-.2,0-.2,0h0Z"/>
      <path class="st3" d="M175.6,121.2c7-4.3,13.6-9.3,20-14.4,18.7-14.9,35.1-32.2,44-54.7,1.2,2.9,1.8,6.1,2.5,9.1,1.5,15.7-2.9,28.6-12.9,40.7-6.8,8.2-14.9,16.1-24,21.7-10,6.3-22.4,10.4-34,12.6,1.5-3.7,5.4-11.2,4.4-15h0Z"/>
      <path class="st11" d="M196.1,116.9c15.9-10.4,30.4-24,39.4-40.9,2.6-4.8,4-9.9,6.5-14.6,0,0,0-.1,0-.2,1.5,15.7-2.9,28.6-12.9,40.7-6.8,8.2-14.9,16.1-24,21.7-3.2-2.1-6.3-4.2-9.2-6.8Z"/>
      <path class="st4" d="M218.1,50.2c3,7.3,5.9,17.2,2.8,24.9-4.8,11.8-35,33.7-35.5,34.8h0c-1.3,1.1-3.6,2.7-5.1,2.9l-.3-.2c0-.2-.1-.4-.2-.6-2.6.6-16.5,11.6-19.4,13.8-.5-5.7-2.5-9.8-5.4-14.7,1.7-4,5.1-6.7,8.1-9.7,5.2-5,10-10.7,12-17.8,3.1-10.4-.2-21.5-5.2-30.8,7.3,5.2,12.9,12.5,14.3,21.5.8,4.7.5,10.6-2.4,14.5-1.5,2-3.8,3.5-5.7,5.1l.3.2c4.7-1.4,17.8-13.9,21.5-18,2-2.3,4-5.3,6.4-7.2,3.4-1.3,11.8-15.4,13.7-19h0Z"/>
      <path class="st11" d="M26.2,199c.2-7.7,1.9-14.7,6.5-20.9,3.1-4.2,7.2-7.5,12-9.5,20.6-8.8,35.2,9.6,51.5,7,21.5-3.5,31.9-31.4,42.9-47.4,5.2-7.6,11.7-14.1,17.1-21.7,9.3-13.1,16.2-29.6,14.6-45.9-.2-2.7-1.4-5.2-1.9-7.9l.2-.2.8.7c5,9.2,8.3,20.3,5.2,30.8-2.1,7-6.8,12.8-12,17.8-3.1,3-6.4,5.6-8.1,9.7,2.9,4.9,4.9,9,5.4,14.7,2.9-2.3,16.8-13.2,19.4-13.8,0,.2.2.4.2.6-2.5,1.7-4.7,3.9-7,5.8-5.6,4.9-10.9,9.6-15.6,15.4-3.9,4.9-7.2,10.2-10.7,15.4-7.7,11.5-16.4,22.5-28.3,29.7-4.4,2.7-9.6,5.2-14.8,5.9v.3c1.8.3,3.9,0,5.6-.4,10.5.6,18,5.9,26.1,12.2,1.5,1.2,3.8,2.5,5,3.9.2.2.1.2.2.5-11.6-3.2-19.4-12.2-32.1-14.2-1.4-.2-3-.6-4.4-.3,0,4.1.5,28.6-.2,30.6-13-4-21.7-8.8-30.7-19.1-3.7-4.2-7.5-8.5-12.4-11.4-5.8-3.4-11.7-4-18.1-2.4h3.1c6.8.1,14.8,3.9,19.4,8.9-.2-.1-.4-.3-.7-.4-7.1-4.4-15.8-7.5-24.3-5.4-6.5,1.6-10.8,5.5-14.2,11.2v-.2Z"/>
    </g>
  </g>
</svg>