<?xml version="1.0" encoding="UTF-8"?>
<svg id="Layer_1" xmlns="http://www.w3.org/2000/svg" version="1.1" viewBox="0 0 512 239.7">
  <!-- Generator: Adobe Illustrator 29.1.0, SVG Export Plug-In . SVG Version: 2.1.0 Build 142)  -->
  <defs>
    <style>
      .st0 {
        fill: #79b900;
      }

      .st1 {
        fill: #6c7f94;
      }

      .st2 {
        display: none;
      }
    </style>
  </defs>
  <g id="Layer_2">
    <g>
      <path class="st1" d="M506.7,115c-3.2-.7-4.4,1.6-6.3,3.5-11,11-19.7,26.5-35.6,32-1.6-1.4-2.6-1.9-2.6-4.3,0-7.8,26.8-42.1,24.9-43.7-5.5-3.1-17.4,3.1-18.7,3.1s-5.4-6.1-10.8-6.7c-7.5-.7-21.7,6.8-27.3,11.7-8.3,7.3-10.3,16.9-17,24-13,13.9-44.4,24.7-38-5.9,3.8-18.3,38.3-43.7,24.5-6.6,30.5-2.5,19.2-30.7-10.6-20.4-23.4,8-22.2,21.4-35.6,35.7-4,4.2-23.9,20.6-18.8,4.3,1.7-5.6,24-37.6,22.3-39.1l-15.7.4c-5,6.4-7.7,20-17.3,19.3-12.4-1,3.8-22.2,2.7-23.2-12-1.2-21.3,6.6-29.4,14.2l6.2-12.4c-1.4-1-15.8.4-18.3,1.8-2.2,1.2-11.6,20.7-14.8,24.8-11.6,15.2-44.2,36.8-45.3,3.7,10.9.1,51.9-11.4,39.3-27.8-11.7-9.3-30.2,0-40.2,8.2-3.1,2.6-7.8,9.9-8.4,10.3-3,1.7-9.3-.3-12.2-2.3-4.9-4.9,2.9-16.8-7-19.8-11.8-3.6-8.2,14.3-10.2,22.1-2.4,9.8-18,32.6-29.7,28.6-2.2-.7-2.7-2.2-3-4.3-1.7-10.7,19.5-34.7,25-44.5-8-2.3-14.7-1.6-20.4,4.6-10.1,11.1-29.2,44.3-3.6,47.9,19.7,2.7,39.8-12.3,46.4-30.3l11.4,1.9c-11.2,32.4,20.9,35,41.9,21.4l.9,5.3c19.9,4.5,20.4-10.2,30.3-22.2,5.6-6.8,13-13,19.5-18.7-2.4,14.3,7.3,17.2,19.6,16-16.8,37.9,15.9,29.7,33.8,10.7,4.4,30.5,41.9,12.8,57,0-1.9,22.9,22.1,18.8,33.8,7.1,1.5,16,20.7,8.3,29.4,1.7,3.2-2.5,29.7-30.2,27.7-32h.2ZM243,106.9c2.1-1.6,7.2-6.8,9.8-2.7,5.2,8-18.1,24.4-25.8,23.2,3.1-7.6,9.6-15.5,16-20.5ZM458.4,126.3c-2.8,5.8-16.2,24.7-23.6,22.4-12.4-3.9,6.4-43.8,21.6-46,12.8-1.8,5,17.5,2,23.6Z"/>
      <path class="st1" d="M370.9,84.2c4.6-4.6,2.2-14.2-5.6-13.8-16.7.9-5.1,24.6,5.6,13.8Z"/>
      <path class="st1" d="M113.4,60.6c-3.2-3-20.3,3.9-17.6,13.1,4.4,14.7,21-9.9,17.6-13.1Z"/>
      <path class="st1" d="M147.3,31.2c.3-6.3-.3-20.5-8.3-22.1-10-2-8.7,22.1-10,28.7-4.7,23.4-15.1,43.5-17.4,68.1-1.7,17.8-2.1,36-1.7,53.4.4,17.4-1.2,26.7-3.5,42.8-1.1,7.2-.3,15.4-1.5,22.7.3,1.6,3.1,6.6,4.1,6.6,4.3,0,2.3-19.5,2.6-24.1.7-10.4,2.8-44.1,8.1-50.7,2-2.5,4.5-2.8,5.7-4,1.2-1.3,13.9-28.9,14.4-31.1,3.1-14.4,2-29,5.3-42.8,3.7-15.7,1.5-32,2.2-47.6h0ZM140.2,63.3c-1.2,20.2-9,58.5-18.7,75.7-1.1,2-1.8,4.9-4.5,5.3,1.6-9.3.7-20.3,1.9-29.3,1.9-14.3,9.7-32.8,12-46.8.8-5.2-.3-10.4.7-15.3,1.1-5.3,1.8-16,2.7-18.2s2.4-2.3,2.3-.9-.1,4.3.2,6.1c1.5,8.8,4,13.5,3.4,23.4h0Z"/>
      <path class="st1" d="M86.4,125.3c-1.9,3.1-11.9,17.1-14,18.1-1.8.9-8.1,1.5-8.9.9-2.3-2,11.4-12.8,11.1-16.5,3.4-5.1-.9-15.9-5.8-18.2-7.2-3.4-15.4,1.8-17.5-7.5-2.2-10.3,7.6-14.6,16.6-13,2.5.4,7.8,5.4,9.8,3.6s-5.2-9.8-5.8-10.2c-9.2-7-37.5,10-36.5,21.9,0,.6,9,7.5,9.7,7.7,2.9.8,5.9-1.2,9.5-.8,3.3.3,11.6,3.8,13.4,6.3,2.8,4-.9,16.5-4.5,18.9-.4.3-9.9.3-10.7,0-5.5-1.6-13.1-11.5-20.1-13.9-10.4-3.6-28,1.6-26.3,13.7.6,4.3,11,12.7,15.2,13.4,13.4,2.3,35.5-8.4,45.4.9,4.9,4.6-.7,12.4,11.2,9.5,2.2-.6,15.1-6.3,17.3-7.6,5.9-3.4-7.1-4.7-8.2-6.1-2.4-3.3.4-12.1,2.7-15.3,2.9-3.9,8.2-4.4,10-9.6.8-2.5,1.4-15.4.8-16.1-4-4.4-13.3,18.3-14.5,20.2v-.3ZM37.7,142.6c-2.6-.1-4.9-1.6-7.3-1.8-2.1-.2-4.9,1.7-6.1.9-4.2-2.7-4.3-9.7,1.3-11.4,12.6-3.8,25.8,12.8,12.2,12.3h0Z"/>
    </g>
  </g>
  <g id="Layer_3" class="st2">
    <g>
      <path class="st0" d="M176.2,86.8c1.9,1.8-7.4,15.6-9.9,7.3s8.1-9,9.9-7.3Z"/>
      <path class="st0" d="M195.2,70.3c.2-3.5-.2-11.5-4.7-12.4-5.6-1.1-4.9,12.4-5.6,16.1-2.6,13.1-8.5,24.4-9.8,38.2-1,10-1.2,20.2-1,30s-.7,15-2,24c-.6,4.1-.2,8.6-.9,12.8.2.9,1.7,3.7,2.3,3.7,2.4,0,1.3-11,1.5-13.5.4-5.9,1.6-24.8,4.5-28.5,1.1-1.4,2.5-1.6,3.2-2.3s7.8-16.2,8.1-17.4c1.7-8.1,1.1-16.3,3-24,2.1-8.8.8-18,1.3-26.7h0ZM191.2,88.3c-.7,11.4-5.1,32.8-10.5,42.5-.6,1.1-1,2.7-2.5,3,.9-5.2.4-11.4,1.1-16.4,1.1-8.1,5.4-18.4,6.7-26.3.5-2.9-.2-5.8.4-8.6.6-3,3.8-6.4.8-10.2l2-.5c.1.2,0,2.4,0,3.4.8,4.9,2.3,7.6,1.9,13.1h.1Z"/>
      <path class="st0" d="M169.2,111.8c-2.2-2.5-7.5,10.3-8.2,11.3-1.1,1.7-6.7,9.6-7.8,10.2-1,.5-4.6.9-5,.5-1.3-1.1,6.4-7.2,6.2-9.3,1.9-2.8-.5-8.9-3.2-10.2-4-1.9-8.7,1-9.8-4.2-1.3-5.8,4.2-8.2,9.3-7.3,1.4.3,4.4,3.1,5.5,2,.5-.5-2.9-5.5-3.2-5.7-5.2-4-21.1,5.6-20.5,12.3,0,.3,5,4.2,5.4,4.3,1.6.5,3.3-.7,5.3-.5,1.8.2,6.5,2.1,7.5,3.5,1.6,2.3-.5,9.3-2.5,10.6-.3.2-5.5.1-6,0-3.1-.9-7.3-6.5-11.3-7.8-5.8-2-15.7.9-14.8,7.7.3,2.4,6.2,7.1,8.6,7.5,7.5,1.3,19.9-4.7,25.5.5,2.7,2.6-.4,7,6.3,5.3,1.3-.3,8.5-3.5,9.7-4.3,3.3-1.9-4-2.6-4.6-3.4-1.3-1.9.2-6.8,1.5-8.6,1.6-2.2,4.6-2.5,5.6-5.4.5-1.4.8-8.7.4-9.1h.1ZM133.7,132.8c-1.5,0-2.7-.9-4.1-1-1.2-.1-2.8,1-3.4.5-2.3-1.5-2.4-5.4.7-6.4,7.1-2.2,14.5,7.2,6.8,6.9h0Z"/>
    </g>
  </g>
</svg>