<?xml version="1.0" encoding="UTF-8"?>
<svg id="Layer_1" xmlns="http://www.w3.org/2000/svg" xmlns:xlink="http://www.w3.org/1999/xlink" version="1.1" viewBox="0 0 512 512">
  <!-- Generator: Adobe Illustrator 29.1.0, SVG Export Plug-In . SVG Version: 2.1.0 Build 142)  -->
  <defs>
    <style>
      .st0 {
        fill: url(#linear-gradient2);
      }

      .st1 {
        fill: url(#linear-gradient1);
      }

      .st2 {
        fill: url(#linear-gradient3);
      }

      .st3 {
        fill: url(#linear-gradient6);
      }

      .st4 {
        fill: url(#linear-gradient7);
      }

      .st5 {
        fill: url(#linear-gradient5);
      }

      .st6 {
        fill: url(#linear-gradient4);
      }

      .st7 {
        fill: #9ca1a3;
      }

      .st8 {
        fill: url(#linear-gradient);
      }

      .st9 {
        fill: #fefefe;
      }
    </style>
    <linearGradient id="linear-gradient" x1="557.1" y1="85" x2="447" y2="83.2" gradientTransform="translate(.3 355.2) scale(.7 -.7)" gradientUnits="userSpaceOnUse">
      <stop offset="0" stop-color="#8b969e"/>
      <stop offset="1" stop-color="#b1aeaa"/>
    </linearGradient>
    <linearGradient id="linear-gradient1" x1="599.6" y1="65.3" x2="408.9" y2="-71.8" gradientTransform="translate(.3 355.2) scale(.7 -.7)" gradientUnits="userSpaceOnUse">
      <stop offset="0" stop-color="#62768d"/>
      <stop offset="1" stop-color="#b7b6b1"/>
    </linearGradient>
    <linearGradient id="linear-gradient2" x1="710.7" y1="148.5" x2="552.6" y2="139.7" gradientTransform="translate(.3 355.2) scale(.7 -.7)" gradientUnits="userSpaceOnUse">
      <stop offset="0" stop-color="#4f6782"/>
      <stop offset="1" stop-color="#8d99a2"/>
    </linearGradient>
    <linearGradient id="linear-gradient3" x1="640.1" y1="-138.4" x2="509.6" y2="-144.3" gradientTransform="translate(.3 355.2) scale(.7 -.7)" gradientUnits="userSpaceOnUse">
      <stop offset="0" stop-color="#6c7f94"/>
      <stop offset="1" stop-color="#9fa4a5"/>
    </linearGradient>
    <linearGradient id="linear-gradient4" x1="491" y1="-103.2" x2="311.3" y2="-104.6" gradientTransform="translate(.3 355.2) scale(.7 -.7)" gradientUnits="userSpaceOnUse">
      <stop offset="0" stop-color="#62788e"/>
      <stop offset="1" stop-color="#b6b4ae"/>
    </linearGradient>
    <linearGradient id="linear-gradient5" x1="685.4" y1="74.7" x2="386.2" y2="24.2" gradientTransform="translate(.3 355.2) scale(.7 -.7)" gradientUnits="userSpaceOnUse">
      <stop offset="0" stop-color="#556f8a"/>
      <stop offset="1" stop-color="#bfbab1"/>
    </linearGradient>
    <linearGradient id="linear-gradient6" x1="725.1" y1="243.9" x2="512.6" y2="239.4" gradientTransform="translate(.3 355.2) scale(.7 -.7)" gradientUnits="userSpaceOnUse">
      <stop offset="0" stop-color="#486484"/>
      <stop offset="1" stop-color="#a8a8a3"/>
    </linearGradient>
    <linearGradient id="linear-gradient7" x1="660.6" y1="255.9" x2="468.5" y2="264.5" gradientTransform="translate(.3 355.2) scale(.7 -.7)" gradientUnits="userSpaceOnUse">
      <stop offset="0" stop-color="#617890"/>
      <stop offset="1" stop-color="#b4b1aa"/>
    </linearGradient>
  </defs>
  <path class="st9" d="M87.7,193.3c1.3,0,2.1.3,3.3.8.8,1.6.5,2.2.3,3.9-1.3,0-2.1-.2-3.3-.7-.8-1.5-.5-2.3-.4-4Z"/>
  <path class="st9" d="M233.1,128.6c1.6,0,2.4,0,3.8,1.1.5,1.8.1,2.4-.3,4.2-1.6-.3-2.3-.4-3.6-1.4-.5-1.7-.3-2.2.2-3.8Z"/>
  <path class="st9" d="M117.2,173.2c.8,1.8,1.2,4,1.8,5.9,1.2.7,2.4,1.5,3.6,2.2,0,1.2-3.7,3.7-4.6,6.6,0,.2-.1.4-.2.6l-.6-.2c-.3-.8-.6-1.7-.9-2.5-.8-2.1-2.8-3.2-4.7-4.4,3.9-2.4,4.2-4.1,5.6-8.2Z"/>
  <path class="st9" d="M130.9,194.1c.6,1,1,2.1,1.5,3.1,2.3,4.9,5.5,5.9,10.3,7.6-8.8,2.6-7,4.2-11.2,11.2-.1.2-.2.4-.4.5-.5-2-1.1-4-2-5.9-2.1-4.1-6.7-5-10.7-6.3,2.3-.5,5-.8,7.1-1.8,3.5-1.6,4.2-5.1,5.3-8.4Z"/>
  <path class="st9" d="M72.6,223.9c.9,3.3,1.7,6.4,3.2,9.4,2.8,1.4,5.2,2.2,8.2,2.9-1.4.6-2.7,1.2-4,2-2.7,1.6-5.1,5-5.8,8.1-.3,1.3-.6,2.5-.9,3.8l-.7-.5c-.5-2-.9-4.1-1.9-5.9-2.2-4.3-7.5-5.2-11.6-6.6,3.3-.6,6.5-1.4,9.7-2.3,2-3.4,2.9-7,3.8-10.9Z"/>
  <path class="st9" d="M49.1,375.6c1.8,1.4,2.9,3.6,4.1,5.6-14.3,6.4-28.6,12.5-43.1,18.4-1,.4-1.2.5-2.3.4,3.8-4.1,34.1-20.1,41.4-24.3Z"/>
  <path class="st7" d="M343.7,472.4c-4.3-8.6-13.1-17.4-20-24.2-3.4-3.4-7-6.6-10.7-9.6-2.8-2.3-8.7-5.8-10.8-8.4-.3-.4-.2-.9-.3-1.3,29.2,17.6,58.4,47.1,66.6,80.9.2.8.3,1.5.4,2.4-2.4-3.8-3.5-8.6-5.4-12.8-4.5-10.2-11.7-19.4-19.8-27Z"/>
  <path class="st9" d="M72.6,145.1c1.5,6.1,2,12.3,4.1,18.2,4.6,1.8,9.6,2.7,14.4,3.8-3.7.8-8.2,1.3-11.6,3.2-5.8,3.3-5.5,12.5-6.9,18.4-1.2-5.9-2-11.7-3.9-17.4-5-2.4-10.8-3.4-16.2-4.7,5.3-1.1,10.8-1.8,15.9-3.6,2.1-5.8,2.9-11.9,4.2-17.9Z"/>
  <path class="st9" d="M363,244.6c2.1,8-5.9,23.6-9.1,31.2-6.9,1.4-13.8,2.6-20.7,3.8,5.9-5.6,11.2-11.5,15.7-18.2,2.9-4.3,5.6-9.9,9.2-13.6,1.3-1.3,3.3-2.2,4.9-3.1Z"/>
  <path class="st9" d="M205.3,144.4c3,6.6,3,14.9,5.5,21.9,5.5,2,11.6,2.9,17.4,4.1-5.9,1.7-11.9,2.6-17.6,4.9-2.7,6.7-3.6,14.2-4.9,21.3-2-3.2-3.3-16.6-5.5-22.1-5.3-2.2-11.4-3.3-17-4.9,5.8-1.1,11.9-2,17.5-4,2.7-6.7,3.4-14.3,4.5-21.4Z"/>
  <path class="st9" d="M109.3,97.2c1.7,5.3,1.8,17.7,4.8,21.5,3.6,4.5,13.9,5.3,19.3,6.4-5.1,1.1-12.6,1.7-17,4.6-5,3.3-5.3,15.3-6.8,20.9l-.2.7c-1.7-7.4-2.4-14.7-5.2-21.9-6-2.6-12.9-3.7-19.3-5.1,5.2-.9,12.8-1.4,17.3-4.1,5.2-3.1,5.8-17.1,7.1-22.9Z"/>
  <path class="st9" d="M350.7,281.5c-7.9,15.8-17.5,26.6-33.1,35.1-4.6,2.5-9.6,4.7-14.2,7.3l-.6-.3c1.1-2.8,6.5-6.2,8.9-8.2,9.8-8.6,15.7-17.8,19.4-30.3,6.6-.7,13.2-1.9,19.6-3.5Z"/>
  <path class="st9" d="M151.9,135.2c1.4,4.3,1.2,12.2,4.6,15.4,3.6,3.4,10.5,2,15,1.6l-7.6,6.6c2.9,5,6.9,9.6,10.3,14.3-4.7-3.5-9.4-7.1-14.5-10-2.8,4.7-3.6,9.7-5.7,14.6l-.7-.4c-2-4.7-4-9.4-6.5-13.9-4.6,3.6-8.8,7.6-13.2,11.4,2.3-3.9,7.3-8.7,7.4-13.2-1.5-4.2-6.6-5.7-10.4-7.6,4.5-.3,9.7-.3,13.6-2.6,5.3-3.1,6.4-10.7,7.7-16.1Z"/>
  <path class="st9" d="M192.9,81.8c1.9,5.1,2.5,11,3.5,16.4l12.4-4.2-8.4,9.7c4.6,1.9,9.4,3.1,14,5l-15.9,1.4c.7,6.4,1.4,12.8,1.9,19.2-3.4-5.3-6.6-10.7-9.7-16.2-3.2,3.1-6,6.5-9,9.8-1.2,1.5-2.6,2.9-4,4.4l6.8-17.2c-5.4-1.3-10.9-1.9-16.3-2.6,5.3-1.7,10.5-3.4,15.8-5.3-4.8-6.4-10-12.5-15-18.7,6.4,4.5,12.3,10.1,18.4,15.1,2-5.5,3.8-11.1,5.6-16.7Z"/>
  <path class="st9" d="M112,324.1c22.2-.1,36.5,6.6,54.3,19.2,4.2,3,8.5,6.7,13.6,8.1,1.2.3,3.2.8,4.3,1.5.3.2.5.4.7.6v-.3c-1.7.9-3.7.3-5.5,0-10.5-1.7-17.9-7.7-27-12.9-3.6-2-7.3-3.7-11.2-5.1-10.5-3.7-21-4.8-32.1-4.1-7.2.5-14.2,1.9-21,4.6-18.1,7.4-27.6,21-34.9,38.4,1.7-11.9,5.3-22,13.5-30.9,12.2-13.3,27.7-18.3,45.3-19.1Z"/>
  <path class="st9" d="M498.5,194.1c-6.2,38.2-20.2,60.7-51.8,83.4-7.1,5.1-14.5,9.8-22.2,13.9,1-2.7,4.8-5.6,6.9-7.8,13.9-14.2,28.4-28.9,40.4-44.7,8.6-11.2,15.1-24,20.5-36.9l6.1-7.9Z"/>
  <path class="st9" d="M277.5,411.7c7.2,1.6,14.4,5.7,21.3,8.4,20.5,8,40.8,11.8,62.7,11.5-.3,9.2-.4,20.2-7.5,27.1-1.1,1-2.2,1.9-3.5,2.7-8.7-6.8-15.9-15.4-24.7-22.1-15-11.5-32-18.6-48.4-27.7Z"/>
  <path class="st9" d="M475.6,268c1.5-1.6,2.9-3.2,4.3-4.8-13.4,36.2-37.9,61.7-72.8,77.7-3.4,1.5-6.8,3-10.3,4.5-3.4-2.9-6.2-8.5-8.6-12.3,37.1-12.5,64.8-33,87.4-65Z"/>
  <path class="st7" d="M225.3,377c3.6-1.3,7.2-2.5,10.7-3.7,12.6,3.2,24.6,8.2,36.9,12.1,17.6,5.5,36.2,8,54.6,8.6-4,8.4-9.6,14.5-18.6,17.7-5.5,1.9-13.1,2.5-18.5,0-.2-.5-.1-.5-.5-1-2.5-3-7.2-5.7-10.4-8.2-16.7-13.1-32.4-24.2-54.2-25.4Z"/>
  <path class="st9" d="M250.3,368.3c12.5-1.6,23.1,4.3,35.1,6.5,18,3.3,39.8.5,57.5-4,3.2,5.7,6.9,11.2,13.5,13.2,12.4,3.7,30-6.4,39.1-5.6-42.3,17.1-80.5,12.4-123.1.6-9.4-2.6-18.9-5-28.1-8.3,1.8-.9,3.9-1.6,5.8-2.3Z"/>
  <path class="st8" d="M350.7,281.5c12.1-3.1,24-6.8,35.7-11.1-1.1,1.7-1.7,3.2-2,5.2-.8,5.9-.6,26.3.5,32.1,0,.4.2.9.3,1.2l-.3-.4c1.1.6.8.7,2.1.3,1.4-.4.8-.3,2.3-.4-24.4,11.5-59.4,15.2-86,15.5,4.6-2.6,9.5-4.8,14.2-7.3,15.6-8.5,25.2-19.3,33.1-35.1Z"/>
  <path class="st1" d="M258,363.8c61.1,7.9,125,2.7,180.5-26.1-4.7,16-12.6,25.5-27.2,33.6-4.3,2.4-10.9,6.1-15.7,7-9.1-.8-26.7,9.3-39.1,5.6-6.6-2-10.3-7.5-13.5-13.2-17.8,4.5-39.5,7.4-57.5,4-12-2.2-22.6-8.1-35.1-6.5,2.5-1.5,5.1-3.1,7.7-4.4Z"/>
  <path class="st0" d="M492.4,202.1c-5.4,12.9-12,25.7-20.5,36.9-12.1,15.8-26.5,30.5-40.4,44.7-2.1,2.2-5.9,5-6.9,7.8-6.1,4.2-28.9,16.4-35.1,17-1.5.1-.9,0-2.3.4-1.3.3-1,.2-2.1-.3l.3.4c0-.3-.3-.8-.3-1.2-1.1-5.8-1.3-26.2-.5-32.1.3-2,.9-3.5,2-5.2,31.2-11.5,61-29.5,86.6-50.7,6.6-5.5,12.3-12,19-17.3l.4-.3Z"/>
  <path class="st9" d="M463.4.4c17.5,14.9,25.9,37.5,27.5,60.1,2.8,37.7-16.9,80.6-41.3,108.7-18,20.7-41.6,39.8-66.1,52.1l-.2-.2c.9-2.5,63.7-47.9,73.7-72.4,6.5-15.9.5-36.7-5.8-51.8-3.9,7.4-21.5,36.6-28.5,39.4,25.3-36.9,49.5-88.9,41-134.4,0-.5-.2-.9-.3-1.4Z"/>
  <path class="st2" d="M361.6,431.6c28.3-2.4,54.6-8.4,80.9-19.4-1.6,24.1-8.5,47.8-27.2,64.2-8.2,7.2-17.6,12.1-28,15.3-12.3-10-24.7-19.9-36.7-30.3,1.2-.8,2.4-1.7,3.5-2.7,7.1-6.9,7.3-17.9,7.5-27.1Z"/>
  <path class="st6" d="M214.6,381.4l1,.3c3.6,1.1,7.3,1.7,10.9,2.7,11.1,3.1,21.9,8.1,30.9,15.5,5.9,4.8,11.4,10.6,17.8,14.8,4.8,3.1,9.9,6.1,15.1,8.6,3.9,1.9,8,3.2,11.6,5.6.1.4,0,1,.3,1.3,2.1,2.6,8,6.2,10.8,8.4,3.7,3,7.3,6.2,10.7,9.6,6.9,6.8,15.6,15.6,20,24.2-37.4-21.6-57.6-16.1-96.5-20.5-11.2-1.3-22.1-4-33-6.9,1.5-4.1.4-55.1.4-63.6Z"/>
  <path class="st5" d="M302.1,325.8c8.3-.5,16.5-.5,24.7-1.2,45.9-3.9,81.6-15.8,121.8-38.3,5.8-3.3,11.4-7.1,16.7-11.1,3-2.2,6-4.9,9.3-6.7.3-.2.6-.3,1-.5-22.5,31.9-50.2,52.5-87.4,65,2.4,3.8,5.2,9.4,8.6,12.3-38.4,14.8-62,19-103,18.8-10.3,0-21.5,0-31.7-1.5l-.2-.6.9-.4c11.6-6.4,23.1-15.1,31.5-25.4,2.5-3.1,4.6-7.9,7.7-10.3Z"/>
  <path class="st9" d="M262.9,361.6c11.6-6.4,23.1-15.1,31.5-25.4,2.5-3.1,4.6-7.9,7.7-10.3,1.3.2,2.9.2,4,1-.8,7.7-10.7,17.5-16.5,22.2-4.2,3.4-20.9,14-26.1,12.8-.2,0-.4-.1-.5-.2Z"/>
  <path class="st3" d="M363,244.6c14.5-9,28.2-19.3,41.5-30,38.8-30.9,73-66.9,91.5-113.7,2.4,6.1,3.7,12.6,5.1,19,3.1,32.6-6.1,59.5-26.7,84.6-14.1,17.1-30.9,33.4-49.8,45.1-20.8,13-46.6,21.6-70.7,26.1,3.2-7.6,11.2-23.2,9.1-31.2Z"/>
  <path class="st9" d="M405.5,235.6c33-21.7,63.1-49.8,81.9-84.9,5.3-9.9,8.4-20.6,13.5-30.3,0-.1.2-.3.2-.4,3.1,32.6-6.1,59.5-26.7,84.6-14.1,17.1-30.9,33.4-49.8,45.1-6.7-4.3-13.1-8.8-19.1-14.1Z"/>
  <path class="st4" d="M451.2,96.9c6.3,15.1,12.3,35.8,5.8,51.8-10,24.5-72.8,70-73.7,72.4l.2.2c-2.7,2-7.4,5.4-10.6,5.9l-.6-.4c0-.4-.3-.9-.4-1.3-5.3,1.3-34.3,24-40.3,28.7-1.1-11.9-5.2-20.4-11.2-30.6,3.6-8.4,10.5-14,16.9-20.1,10.8-10.4,20.7-22.3,25-36.9,6.4-21.6-.5-44.7-10.9-63.9,15.1,10.8,26.7,26,29.7,44.6,1.6,9.7,1.1,22-5,30.1-3.2,4.2-7.8,7.3-11.9,10.5l.6.4c9.7-2.9,36.9-28.8,44.7-37.4,4.2-4.7,8.4-11,13.2-14.9,7-2.8,24.6-32,28.5-39.4Z"/>
  <path class="st9" d="M52.6,406.1c.4-15.9,4-30.5,13.5-43.5,6.4-8.7,15-15.5,25-19.7,42.8-18.3,73.1,20,107.1,14.5,44.6-7.3,66.2-65.2,89.2-98.4,10.9-15.8,24.4-29.4,35.5-45,19.3-27.2,33.7-61.4,30.4-95.4-.5-5.7-2.9-10.9-3.9-16.5l.5-.5,1.7,1.4c10.4,19.2,17.3,42.2,10.9,63.9-4.3,14.6-14.2,26.5-25,36.9-6.5,6.2-13.4,11.7-16.9,20.1,6,10.2,10.2,18.7,11.2,30.6,6-4.8,35-27.4,40.3-28.7.2.4.4.8.4,1.3-5.1,3.6-9.8,8.1-14.5,12.1-11.7,10.1-22.7,19.9-32.4,32-8.2,10.2-15,21.2-22.3,32.1-15.9,23.8-34.1,46.7-58.8,61.8-9.1,5.6-20,10.8-30.7,12.2v.7c3.7.7,8-.1,11.6-.8,21.9,1.3,37.5,12.3,54.2,25.4,3.2,2.5,7.9,5.2,10.4,8.2.4.4.3.5.5,1-24.2-6.7-40.4-25.3-66.6-29.5-3-.5-6.2-1.2-9.2-.6,0,8.5,1.1,59.5-.4,63.6-27.1-8.4-45-18.2-63.7-39.7-7.7-8.8-15.6-17.7-25.8-23.7-12-7.1-24.3-8.3-37.7-4.9,2.2,0,4.3,0,6.5,0,14.2.3,30.7,8.2,40.4,18.4-.4-.3-.9-.6-1.4-.9-14.8-9.2-32.9-15.5-50.4-11.2-13.5,3.3-22.5,11.5-29.6,23.2Z"/>
</svg>